<mxfile host="app.diagrams.net" agent="Mozilla/5.0 (Windows NT 10.0; Win64; x64) AppleWebKit/537.36 (KHTML, like Gecko) Chrome/131.0.0.0 Safari/537.36" version="25.0.3">
  <diagram name="Page-1" id="OjqTUcV_cYWmAmswNWk9">
    <mxGraphModel dx="2284" dy="746" grid="1" gridSize="10" guides="1" tooltips="1" connect="1" arrows="1" fold="1" page="1" pageScale="1" pageWidth="850" pageHeight="1100" math="0" shadow="0">
      <root>
        <mxCell id="0" />
        <mxCell id="1" parent="0" />
        <mxCell id="vWYdhi3PdiuowdFoy_wd-5" style="edgeStyle=orthogonalEdgeStyle;rounded=0;orthogonalLoop=1;jettySize=auto;html=1;entryX=0.5;entryY=0;entryDx=0;entryDy=0;" edge="1" parent="1" source="vWYdhi3PdiuowdFoy_wd-2" target="vWYdhi3PdiuowdFoy_wd-4">
          <mxGeometry relative="1" as="geometry" />
        </mxCell>
        <mxCell id="vWYdhi3PdiuowdFoy_wd-2" value="&lt;font style=&quot;font-size: 24px;&quot;&gt;start&lt;/font&gt;" style="strokeWidth=2;html=1;shape=mxgraph.flowchart.start_1;whiteSpace=wrap;" vertex="1" parent="1">
          <mxGeometry x="375" y="40" width="100" height="60" as="geometry" />
        </mxCell>
        <mxCell id="vWYdhi3PdiuowdFoy_wd-3" value="&lt;font style=&quot;font-size: 24px;&quot;&gt;end&lt;/font&gt;" style="strokeWidth=2;html=1;shape=mxgraph.flowchart.start_1;whiteSpace=wrap;" vertex="1" parent="1">
          <mxGeometry x="40" y="950" width="100" height="60" as="geometry" />
        </mxCell>
        <mxCell id="vWYdhi3PdiuowdFoy_wd-31" style="edgeStyle=orthogonalEdgeStyle;rounded=0;orthogonalLoop=1;jettySize=auto;html=1;entryX=0.5;entryY=0;entryDx=0;entryDy=0;" edge="1" parent="1" source="vWYdhi3PdiuowdFoy_wd-4" target="vWYdhi3PdiuowdFoy_wd-6">
          <mxGeometry relative="1" as="geometry" />
        </mxCell>
        <mxCell id="vWYdhi3PdiuowdFoy_wd-4" value="input num1, num2, num3" style="shape=parallelogram;perimeter=parallelogramPerimeter;whiteSpace=wrap;html=1;fixedSize=1;" vertex="1" parent="1">
          <mxGeometry x="288" y="160" width="275" height="50" as="geometry" />
        </mxCell>
        <mxCell id="vWYdhi3PdiuowdFoy_wd-11" style="edgeStyle=orthogonalEdgeStyle;rounded=0;orthogonalLoop=1;jettySize=auto;html=1;entryX=0.5;entryY=0;entryDx=0;entryDy=0;" edge="1" parent="1" source="vWYdhi3PdiuowdFoy_wd-6" target="vWYdhi3PdiuowdFoy_wd-7">
          <mxGeometry relative="1" as="geometry" />
        </mxCell>
        <mxCell id="vWYdhi3PdiuowdFoy_wd-52" style="edgeStyle=orthogonalEdgeStyle;rounded=0;orthogonalLoop=1;jettySize=auto;html=1;entryX=0.5;entryY=0;entryDx=0;entryDy=0;" edge="1" parent="1" source="vWYdhi3PdiuowdFoy_wd-6" target="vWYdhi3PdiuowdFoy_wd-19">
          <mxGeometry relative="1" as="geometry" />
        </mxCell>
        <mxCell id="vWYdhi3PdiuowdFoy_wd-6" value="if (num1 &amp;gt;= num2 &amp;amp;&amp;amp; num1 &amp;gt;= num3)" style="rhombus;whiteSpace=wrap;html=1;" vertex="1" parent="1">
          <mxGeometry x="317" y="260" width="216" height="120" as="geometry" />
        </mxCell>
        <mxCell id="vWYdhi3PdiuowdFoy_wd-12" style="edgeStyle=orthogonalEdgeStyle;rounded=0;orthogonalLoop=1;jettySize=auto;html=1;entryX=0.5;entryY=0;entryDx=0;entryDy=0;" edge="1" parent="1" source="vWYdhi3PdiuowdFoy_wd-7" target="vWYdhi3PdiuowdFoy_wd-8">
          <mxGeometry relative="1" as="geometry" />
        </mxCell>
        <mxCell id="vWYdhi3PdiuowdFoy_wd-7" value="num2 &amp;gt;= num3" style="rhombus;whiteSpace=wrap;html=1;" vertex="1" parent="1">
          <mxGeometry x="555" y="390" width="150" height="70" as="geometry" />
        </mxCell>
        <mxCell id="vWYdhi3PdiuowdFoy_wd-8" value="output num2, num3" style="shape=parallelogram;perimeter=parallelogramPerimeter;whiteSpace=wrap;html=1;fixedSize=1;" vertex="1" parent="1">
          <mxGeometry x="720" y="480" width="180" height="40" as="geometry" />
        </mxCell>
        <mxCell id="vWYdhi3PdiuowdFoy_wd-22" style="edgeStyle=orthogonalEdgeStyle;rounded=0;orthogonalLoop=1;jettySize=auto;html=1;entryX=0.5;entryY=0;entryDx=0;entryDy=0;" edge="1" parent="1" source="vWYdhi3PdiuowdFoy_wd-19" target="vWYdhi3PdiuowdFoy_wd-21">
          <mxGeometry relative="1" as="geometry" />
        </mxCell>
        <mxCell id="vWYdhi3PdiuowdFoy_wd-51" style="edgeStyle=orthogonalEdgeStyle;rounded=0;orthogonalLoop=1;jettySize=auto;html=1;entryX=0.5;entryY=0;entryDx=0;entryDy=0;" edge="1" parent="1" source="vWYdhi3PdiuowdFoy_wd-19" target="vWYdhi3PdiuowdFoy_wd-42">
          <mxGeometry relative="1" as="geometry" />
        </mxCell>
        <mxCell id="vWYdhi3PdiuowdFoy_wd-19" value="else if (num2 &amp;gt;= num1 &amp;amp;&amp;amp; num2 &amp;gt;= num3)" style="rhombus;whiteSpace=wrap;html=1;" vertex="1" parent="1">
          <mxGeometry x="43.5" y="500" width="273" height="170" as="geometry" />
        </mxCell>
        <mxCell id="vWYdhi3PdiuowdFoy_wd-24" style="edgeStyle=orthogonalEdgeStyle;rounded=0;orthogonalLoop=1;jettySize=auto;html=1;entryX=0.5;entryY=0;entryDx=0;entryDy=0;" edge="1" parent="1" source="vWYdhi3PdiuowdFoy_wd-21" target="vWYdhi3PdiuowdFoy_wd-23">
          <mxGeometry relative="1" as="geometry" />
        </mxCell>
        <mxCell id="vWYdhi3PdiuowdFoy_wd-21" value="output num3" style="shape=parallelogram;perimeter=parallelogramPerimeter;whiteSpace=wrap;html=1;fixedSize=1;" vertex="1" parent="1">
          <mxGeometry x="-180" y="650" width="180" height="40" as="geometry" />
        </mxCell>
        <mxCell id="vWYdhi3PdiuowdFoy_wd-27" style="edgeStyle=orthogonalEdgeStyle;rounded=0;orthogonalLoop=1;jettySize=auto;html=1;entryX=0.5;entryY=0;entryDx=0;entryDy=0;" edge="1" parent="1" source="vWYdhi3PdiuowdFoy_wd-23" target="vWYdhi3PdiuowdFoy_wd-26">
          <mxGeometry relative="1" as="geometry" />
        </mxCell>
        <mxCell id="vWYdhi3PdiuowdFoy_wd-28" style="edgeStyle=orthogonalEdgeStyle;rounded=0;orthogonalLoop=1;jettySize=auto;html=1;" edge="1" parent="1" source="vWYdhi3PdiuowdFoy_wd-23" target="vWYdhi3PdiuowdFoy_wd-25">
          <mxGeometry relative="1" as="geometry" />
        </mxCell>
        <mxCell id="vWYdhi3PdiuowdFoy_wd-23" value="if (num1 &amp;gt;= num2)" style="rhombus;whiteSpace=wrap;html=1;" vertex="1" parent="1">
          <mxGeometry x="-165" y="740" width="150" height="80" as="geometry" />
        </mxCell>
        <mxCell id="vWYdhi3PdiuowdFoy_wd-25" value="output num1, num2" style="shape=parallelogram;perimeter=parallelogramPerimeter;whiteSpace=wrap;html=1;fixedSize=1;" vertex="1" parent="1">
          <mxGeometry x="-350" y="830" width="180" height="40" as="geometry" />
        </mxCell>
        <mxCell id="vWYdhi3PdiuowdFoy_wd-26" value="output num2, num1" style="shape=parallelogram;perimeter=parallelogramPerimeter;whiteSpace=wrap;html=1;fixedSize=1;" vertex="1" parent="1">
          <mxGeometry y="820" width="180" height="40" as="geometry" />
        </mxCell>
        <mxCell id="vWYdhi3PdiuowdFoy_wd-29" style="edgeStyle=orthogonalEdgeStyle;rounded=0;orthogonalLoop=1;jettySize=auto;html=1;entryX=0.5;entryY=0;entryDx=0;entryDy=0;entryPerimeter=0;" edge="1" parent="1" source="vWYdhi3PdiuowdFoy_wd-26" target="vWYdhi3PdiuowdFoy_wd-3">
          <mxGeometry relative="1" as="geometry" />
        </mxCell>
        <mxCell id="vWYdhi3PdiuowdFoy_wd-33" value="&lt;font style=&quot;font-size: 24px;&quot;&gt;end&lt;/font&gt;" style="strokeWidth=2;html=1;shape=mxgraph.flowchart.start_1;whiteSpace=wrap;" vertex="1" parent="1">
          <mxGeometry x="-310" y="950" width="100" height="60" as="geometry" />
        </mxCell>
        <mxCell id="vWYdhi3PdiuowdFoy_wd-34" style="edgeStyle=orthogonalEdgeStyle;rounded=0;orthogonalLoop=1;jettySize=auto;html=1;entryX=0.5;entryY=0;entryDx=0;entryDy=0;entryPerimeter=0;" edge="1" parent="1" source="vWYdhi3PdiuowdFoy_wd-25" target="vWYdhi3PdiuowdFoy_wd-33">
          <mxGeometry relative="1" as="geometry" />
        </mxCell>
        <mxCell id="vWYdhi3PdiuowdFoy_wd-35" value="&lt;font style=&quot;font-size: 24px;&quot;&gt;end&lt;/font&gt;" style="strokeWidth=2;html=1;shape=mxgraph.flowchart.start_1;whiteSpace=wrap;" vertex="1" parent="1">
          <mxGeometry x="760" y="570" width="100" height="60" as="geometry" />
        </mxCell>
        <mxCell id="vWYdhi3PdiuowdFoy_wd-36" style="edgeStyle=orthogonalEdgeStyle;rounded=0;orthogonalLoop=1;jettySize=auto;html=1;entryX=0.5;entryY=0;entryDx=0;entryDy=0;entryPerimeter=0;" edge="1" parent="1" source="vWYdhi3PdiuowdFoy_wd-8" target="vWYdhi3PdiuowdFoy_wd-35">
          <mxGeometry relative="1" as="geometry" />
        </mxCell>
        <mxCell id="vWYdhi3PdiuowdFoy_wd-40" value="&lt;font style=&quot;font-size: 24px;&quot;&gt;end&lt;/font&gt;" style="strokeWidth=2;html=1;shape=mxgraph.flowchart.start_1;whiteSpace=wrap;" vertex="1" parent="1">
          <mxGeometry x="610" y="950" width="100" height="60" as="geometry" />
        </mxCell>
        <mxCell id="vWYdhi3PdiuowdFoy_wd-41" style="edgeStyle=orthogonalEdgeStyle;rounded=0;orthogonalLoop=1;jettySize=auto;html=1;entryX=0.5;entryY=0;entryDx=0;entryDy=0;" edge="1" parent="1" source="vWYdhi3PdiuowdFoy_wd-42" target="vWYdhi3PdiuowdFoy_wd-45">
          <mxGeometry relative="1" as="geometry" />
        </mxCell>
        <mxCell id="vWYdhi3PdiuowdFoy_wd-42" value="output num2" style="shape=parallelogram;perimeter=parallelogramPerimeter;whiteSpace=wrap;html=1;fixedSize=1;" vertex="1" parent="1">
          <mxGeometry x="390" y="650" width="180" height="40" as="geometry" />
        </mxCell>
        <mxCell id="vWYdhi3PdiuowdFoy_wd-43" style="edgeStyle=orthogonalEdgeStyle;rounded=0;orthogonalLoop=1;jettySize=auto;html=1;entryX=0.5;entryY=0;entryDx=0;entryDy=0;" edge="1" parent="1" source="vWYdhi3PdiuowdFoy_wd-45" target="vWYdhi3PdiuowdFoy_wd-47">
          <mxGeometry relative="1" as="geometry" />
        </mxCell>
        <mxCell id="vWYdhi3PdiuowdFoy_wd-44" style="edgeStyle=orthogonalEdgeStyle;rounded=0;orthogonalLoop=1;jettySize=auto;html=1;" edge="1" parent="1" source="vWYdhi3PdiuowdFoy_wd-45" target="vWYdhi3PdiuowdFoy_wd-46">
          <mxGeometry relative="1" as="geometry" />
        </mxCell>
        <mxCell id="vWYdhi3PdiuowdFoy_wd-45" value="if (num1 &amp;gt;= num3)" style="rhombus;whiteSpace=wrap;html=1;" vertex="1" parent="1">
          <mxGeometry x="405" y="740" width="150" height="80" as="geometry" />
        </mxCell>
        <mxCell id="vWYdhi3PdiuowdFoy_wd-46" value="output num3, num1" style="shape=parallelogram;perimeter=parallelogramPerimeter;whiteSpace=wrap;html=1;fixedSize=1;" vertex="1" parent="1">
          <mxGeometry x="220" y="830" width="180" height="40" as="geometry" />
        </mxCell>
        <mxCell id="vWYdhi3PdiuowdFoy_wd-47" value="output num1, num3" style="shape=parallelogram;perimeter=parallelogramPerimeter;whiteSpace=wrap;html=1;fixedSize=1;" vertex="1" parent="1">
          <mxGeometry x="570" y="820" width="180" height="40" as="geometry" />
        </mxCell>
        <mxCell id="vWYdhi3PdiuowdFoy_wd-48" style="edgeStyle=orthogonalEdgeStyle;rounded=0;orthogonalLoop=1;jettySize=auto;html=1;entryX=0.5;entryY=0;entryDx=0;entryDy=0;entryPerimeter=0;" edge="1" parent="1" source="vWYdhi3PdiuowdFoy_wd-47" target="vWYdhi3PdiuowdFoy_wd-40">
          <mxGeometry relative="1" as="geometry" />
        </mxCell>
        <mxCell id="vWYdhi3PdiuowdFoy_wd-49" value="&lt;font style=&quot;font-size: 24px;&quot;&gt;end&lt;/font&gt;" style="strokeWidth=2;html=1;shape=mxgraph.flowchart.start_1;whiteSpace=wrap;" vertex="1" parent="1">
          <mxGeometry x="260" y="950" width="100" height="60" as="geometry" />
        </mxCell>
        <mxCell id="vWYdhi3PdiuowdFoy_wd-50" style="edgeStyle=orthogonalEdgeStyle;rounded=0;orthogonalLoop=1;jettySize=auto;html=1;entryX=0.5;entryY=0;entryDx=0;entryDy=0;entryPerimeter=0;" edge="1" parent="1" source="vWYdhi3PdiuowdFoy_wd-46" target="vWYdhi3PdiuowdFoy_wd-49">
          <mxGeometry relative="1" as="geometry" />
        </mxCell>
      </root>
    </mxGraphModel>
  </diagram>
</mxfile>
